HIERARCHY
ROOT Hips
{
	OFFSET 0.000000 0.000000 0.000000
	CHANNELS 6 Xposition Yposition Zposition Xrotation Yrotation Zrotation
	JOINT LeftUpLeg_virtual
	{
		OFFSET 0.000000 0.000000 0.000000
		CHANNELS 3 Xrotation Yrotation Zrotation
		JOINT LeftUpLeg
		{
			OFFSET 13.026900 -6.336304 -1.092800
			CHANNELS 3 Xrotation Yrotation Zrotation
			JOINT LeftLeg
			{
				OFFSET 0.524474 -46.096886 9.782700
				CHANNELS 3 Xrotation Yrotation Zrotation
				JOINT LeftFoot
				{
					OFFSET -0.524474 -53.427422 -12.948200
					CHANNELS 3 Xrotation Yrotation Zrotation
					JOINT LeftToeBase
					{
						OFFSET 0.192200 -14.009700 16.364100
						CHANNELS 3 Xrotation Yrotation Zrotation
						JOINT LeftToe_End
						{
							OFFSET -1.784700 -0.561700 9.474800
							CHANNELS 3 Xrotation Yrotation Zrotation
							End Site
							{
								OFFSET 0 0 0
							}
						}
					}
				}
			}
		}
	}
	JOINT RightUpLeg_virtual
	{
		OFFSET 0.000000 0.000000 0.000000
		CHANNELS 3 Xrotation Yrotation Zrotation
		JOINT RightUpLeg
		{
			OFFSET -12.883000 -6.336304 -1.092800
			CHANNELS 3 Xrotation Yrotation Zrotation
			JOINT RightLeg
			{
				OFFSET -0.524587 -46.096825 9.782800
				CHANNELS 3 Xrotation Yrotation Zrotation
				JOINT RightFoot
				{
					OFFSET 0.524587 -53.427383 -12.948300
					CHANNELS 3 Xrotation Yrotation Zrotation
					JOINT RightToeBase
					{
						OFFSET -0.192200 -14.009700 16.364100
						CHANNELS 3 Xrotation Yrotation Zrotation
						JOINT RightToe_End
						{
							OFFSET 1.784700 -0.561700 9.474800
							CHANNELS 3 Xrotation Yrotation Zrotation
							End Site
							{
								OFFSET 0 0 0
							}
						}
					}
				}
			}
		}
	}
	JOINT Spine_virtual
	{
		OFFSET 0.000000 0.000000 0.000000
		CHANNELS 3 Xrotation Yrotation Zrotation
		JOINT Spine
		{
			OFFSET 0.072000 7.257294 -0.789700
			CHANNELS 3 Xrotation Yrotation Zrotation
			JOINT Spine1
			{
				OFFSET 0.000000 12.508769 -0.658067
				CHANNELS 3 Xrotation Yrotation Zrotation
				JOINT Spine1_split
				{
					OFFSET 0.000000 12.508769 -0.658067
					CHANNELS 3 Xrotation Yrotation Zrotation
					JOINT Spine2
					{
						OFFSET 0.000000 12.508769 -0.658067
						CHANNELS 3 Xrotation Yrotation Zrotation
						JOINT Neck_virtual
						{
							OFFSET 0.000000 0.000000 0.000000
							CHANNELS 3 Xrotation Yrotation Zrotation
							JOINT Neck
							{
								OFFSET 0.000000 14.033295 7.520400
								CHANNELS 3 Xrotation Yrotation Zrotation
								JOINT Head
								{
									OFFSET 0.000000 8.198502 5.703100
									CHANNELS 3 Xrotation Yrotation Zrotation
									JOINT HeadTop_End
									{
										OFFSET 0.000000 17.760803 13.332701
										CHANNELS 3 Xrotation Yrotation Zrotation
										End Site
										{
											OFFSET 0 0 0
										}
									}
								}
							}
						}
						JOINT LeftShoulder_virtual
						{
							OFFSET 0.000000 0.000000 0.000000
							CHANNELS 3 Xrotation Yrotation Zrotation
							JOINT LeftShoulder
							{
								OFFSET 6.292450 5.785301 -0.669000
								CHANNELS 3 Xrotation Yrotation Zrotation
								JOINT LeftShoulder_split
								{
									OFFSET 6.292450 5.785301 -0.669000
									CHANNELS 3 Xrotation Yrotation Zrotation
									JOINT LeftArm
									{
										OFFSET 13.907140 -6.093903 1.965100
										CHANNELS 3 Xrotation Yrotation Zrotation
										JOINT LeftForeArm
										{
											OFFSET 34.140198 0.000000 0.000000
											CHANNELS 3 Xrotation Yrotation Zrotation
											JOINT LeftHand
											{
												OFFSET 40.960209 0.000000 0.000000
												CHANNELS 3 Xrotation Yrotation Zrotation
												End Site
												{
													OFFSET 0 0 0
												}
											}
										}
									}
								}
							}
						}
						JOINT RightShoulder_virtual
						{
							OFFSET 0.000000 0.000000 0.000000
							CHANNELS 3 Xrotation Yrotation Zrotation
							JOINT RightShoulder
							{
								OFFSET -6.292450 5.785301 -0.669000
								CHANNELS 3 Xrotation Yrotation Zrotation
								JOINT RightShoulder_split
								{
									OFFSET -6.292450 5.785301 -0.669000
									CHANNELS 3 Xrotation Yrotation Zrotation
									JOINT RightArm
									{
										OFFSET -13.907140 -6.093903 1.965100
										CHANNELS 3 Xrotation Yrotation Zrotation
										JOINT RightForeArm
										{
											OFFSET -34.140198 0.000000 0.000000
											CHANNELS 3 Xrotation Yrotation Zrotation
											JOINT RightHand
											{
												OFFSET -40.960209 0.000000 0.000000
												CHANNELS 3 Xrotation Yrotation Zrotation
												End Site
												{
													OFFSET 0 0 0
												}
											}
										}
									}
								}
							}
						}
					}
				}
			}
		}
	}
}
MOTION
Frames: 4
Frame Time: 0.03333333
-1.154971 102.120049 0.589149 0.000000 0.000000 0.000000 12.386131 -56.029818 11.652633 -44.553502 7.273001 27.485962 40.150499 -9.799197 -9.737051 -3.701253 -1.108752 -4.443234 0.612373 0.000017 -0.000007 0.000000 0.000000 0.000000 12.386131 -56.029818 11.652633 -31.676819 -9.584436 -20.593649 48.254580 8.274080 -1.107829 -30.749973 -4.588074 11.808694 9.011158 0.000049 -0.000001 0.000000 0.000000 0.000000 12.386131 -56.029818 11.652633 11.725891 1.420180 -3.080264 -7.573171 6.733738 -2.520092 0.000000 0.000000 0.000000 0.000000 0.000000 0.000000 0.220140 5.397600 -4.595491 -12.580313 9.083975 1.899286 -4.773442 33.430750 5.660078 0.000000 0.000000 0.000000 0.220140 5.397600 -4.595491 -31.809704 13.410708 5.488759 0.000000 0.000000 0.000000 38.429516 -24.730792 -35.179193 0.000033 -63.060842 0.000024 0.000000 0.000000 0.000000 0.220140 5.397600 -4.595491 0.882299 7.689506 10.202003 0.000000 0.000000 0.000000 7.550373 1.963474 57.853758 0.000022 75.685183 -0.000016 0.000000 0.000000 0.000000 
-1.232398 102.135078 0.573757 0.000000 0.000000 0.000000 12.301715 -55.974906 11.543721 -44.495278 7.252915 27.561645 40.108872 -9.706863 -9.755371 -3.680402 -1.287162 -4.477183 0.612366 0.000014 0.000001 0.000000 0.000000 0.000000 12.301715 -55.974906 11.543721 -31.549470 -9.648533 -20.524015 48.225203 8.273290 -1.107918 -30.803159 -4.641370 11.760861 9.011146 -0.000010 0.000006 0.000000 0.000000 0.000000 12.301715 -55.974906 11.543721 11.725967 1.420872 -3.082885 -7.573166 6.733735 -2.520090 0.000000 0.000000 0.000000 0.000000 0.000000 0.000000 0.220138 5.397586 -4.595492 -12.608600 10.491375 2.412570 -4.224774 32.405747 4.896689 0.000000 0.000000 0.000000 0.220138 5.397586 -4.595492 -31.754079 12.465681 5.128835 0.000000 0.000000 0.000000 39.012295 -25.126464 -34.726990 0.000010 -61.838784 0.000003 0.000000 0.000000 0.000000 0.220138 5.397586 -4.595492 1.163714 7.679724 9.947278 0.000000 0.000000 0.000000 6.979114 3.931151 56.951750 -0.000023 74.671733 0.000026 0.000000 0.000000 0.000000 
-1.323610 102.148643 0.568975 0.000000 0.000000 0.000000 12.244554 -55.894512 11.447843 -44.460915 7.226764 27.640322 40.073662 -9.612435 -9.773599 -3.664679 -1.488791 -4.508710 0.612361 -0.000001 0.000002 0.000000 0.000000 0.000000 12.244554 -55.894512 11.447843 -31.417825 -9.722318 -20.445393 48.189580 8.272903 -1.107951 -30.869405 -4.716415 11.710130 9.011158 -0.000001 -0.000002 0.000000 0.000000 0.000000 12.244554 -55.894512 11.447843 11.726010 1.422080 -3.084616 -7.573169 6.733732 -2.520092 0.000000 0.000000 0.000000 0.000000 0.000000 0.000000 0.220137 5.397604 -4.595492 -12.821390 12.084332 2.975462 -3.719843 31.374129 4.175468 0.000000 0.000000 0.000000 0.220137 5.397604 -4.595492 -31.730412 11.421059 4.759068 0.000000 0.000000 0.000000 39.967012 -25.538402 -34.374249 0.000014 -60.212380 0.000021 0.000000 0.000000 0.000000 0.220137 5.397604 -4.595492 1.475930 7.670212 9.670639 0.000000 0.000000 0.000000 6.392931 5.865439 55.957305 0.000024 73.593519 -0.000018 0.000000 0.000000 0.000000 
-1.423652 102.160652 0.565090 0.000000 0.000000 0.000000 12.181905 -55.849036 11.351889 -44.397555 7.205177 27.729783 40.052789 -9.517663 -9.791924 -3.678314 -1.667265 -4.548564 0.612366 0.000011 0.000002 0.000000 0.000000 0.000000 12.181905 -55.849036 11.351889 -31.287799 -9.796789 -20.372301 48.157796 8.272402 -1.108049 -30.935709 -4.752443 11.666084 9.011151 -0.000038 0.000003 0.000000 0.000000 0.000000 12.181905 -55.849036 11.351889 11.726027 1.423416 -3.085248 -7.573167 6.733728 -2.520090 0.000000 0.000000 0.000000 0.000000 0.000000 0.000000 0.220139 5.397592 -4.595490 -13.172012 13.808992 3.564264 -3.175430 30.361810 3.469795 0.000000 0.000000 0.000000 0.220139 5.397592 -4.595490 -31.736498 10.309247 4.391988 0.000000 0.000000 0.000000 41.206661 -26.015164 -34.093723 -0.000008 -58.194031 -0.000006 0.000000 0.000000 0.000000 0.220139 5.397592 -4.595490 1.816776 7.661907 9.370138 0.000000 0.000000 0.000000 5.862039 7.760576 54.903362 0.000095 72.405387 -0.000109 0.000000 0.000000 0.000000 
